<?xml version="1.0" encoding="utf-8"?>
<svg width="62px" height="62px" viewBox="0 0 62 62" version="1.1" xmlns:xlink="http://www.w3.org/1999/xlink" xmlns="http://www.w3.org/2000/svg">
  <desc>Created with Lunacy</desc>
  <defs>
    <linearGradient x1="0.5" y1="1" x2="0.5" y2="3.061617E-17" id="gradient_1">
      <stop offset="0" stop-color="#FFCF44" />
      <stop offset="1" stop-color="#FFDE7F" />
    </linearGradient>
    <filter filterUnits="userSpaceOnUse" color-interpolation-filters="sRGB" id="filter_1">
      <feFlood flood-opacity="0" result="BackgroundImageFix" />
      <feColorMatrix in="SourceAlpha" type="matrix" values="0 0 0 0 0 0 0 0 0 0 0 0 0 0 0 0 0 0 127 0" />
      <feOffset dx="0" dy="0" />
      <feGaussianBlur stdDeviation="4.5" />
      <feColorMatrix type="matrix" values="0 0 0 0 0.9568627 0 0 0 0 0.9254902 0 0 0 0 0.9058824 0 0 0 1 0" />
      <feBlend mode="normal" in2="BackgroundImageFix" result="effect0_dropShadow" />
      <feBlend mode="normal" in="SourceGraphic" in2="effect0_dropShadow" result="shape" />
    </filter>
  </defs>
  <g id="Star" transform="translate(1 1)">
    <g filter="url(#filter_1)">
      <path d="M30 60C46.5685 60 60 46.5685 60 30C60 13.4315 46.5685 0 30 0C13.4315 0 0 13.4315 0 30C0 46.5685 13.4315 60 30 60Z" id="Oval" fill="url(#gradient_1)" stroke="none" />
    </g>
    <path d="M9.79586 16.6704L4.20864 19.745Q4.1719 19.7652 4.13271 19.7801Q4.09352 19.795 4.05263 19.8043Q4.01175 19.8136 3.96997 19.8171Q3.92818 19.8206 3.88632 19.8182Q3.84446 19.8159 3.80333 19.8077Q3.7622 19.7996 3.72261 19.7858Q3.68302 19.772 3.64574 19.7528Q3.60846 19.7336 3.57422 19.7094Q3.53997 19.6852 3.50943 19.6565Q3.47889 19.6277 3.45265 19.595Q3.42641 19.5623 3.40499 19.5263Q3.38356 19.4903 3.36736 19.4516Q3.35116 19.4129 3.34051 19.3724Q3.32985 19.3318 3.32496 19.2902Q3.32006 19.2485 3.32101 19.2066Q3.32195 19.1647 3.32874 19.1233L4.40272 12.569L-0.171486 7.90201Q-0.200294 7.87262 -0.224812 7.83956Q-0.249329 7.80651 -0.269095 7.77041Q-0.288861 7.73431 -0.303504 7.69585Q-0.318146 7.65738 -0.327391 7.61728Q-0.336635 7.57717 -0.340308 7.53618Q-0.34398 7.49519 -0.342012 7.45408Q-0.340043 7.41297 -0.332471 7.37252Q-0.324898 7.33206 -0.311864 7.29303Q-0.29883 7.25399 -0.280579 7.2171Q-0.262328 7.18021 -0.239203 7.14617Q-0.216078 7.11212 -0.188514 7.08156Q-0.16095 7.051 -0.129466 7.02449Q-0.0979807 6.99799 -0.0631666 6.97604Q-0.0283524 6.95409 0.00913678 6.9371Q0.0466259 6.92012 0.0860855 6.90843Q0.125545 6.89673 0.166233 6.89054L6.46272 5.93287L9.25407 0.0128065Q9.27214 -0.0255283 9.29543 -0.0609362Q9.31873 -0.0963441 9.34677 -0.128119Q9.37482 -0.159895 9.40706 -0.187404Q9.4393 -0.214914 9.4751 -0.23761Q9.51089 -0.260306 9.54952 -0.277736Q9.58815 -0.295165 9.62886 -0.306982Q9.66956 -0.318798 9.71152 -0.324766Q9.75348 -0.330734 9.79586 -0.330734Q9.83824 -0.330734 9.8802 -0.324766Q9.92216 -0.318798 9.96287 -0.306982Q10.0036 -0.295165 10.0422 -0.277736Q10.0808 -0.260306 10.1166 -0.23761Q10.1524 -0.214914 10.1847 -0.187404Q10.2169 -0.159895 10.2449 -0.128119Q10.273 -0.0963441 10.2963 -0.0609362Q10.3196 -0.0255283 10.3377 0.0128065L13.129 5.93287L19.4255 6.89054Q19.4662 6.89673 19.5056 6.90843Q19.5451 6.92012 19.5826 6.9371Q19.6201 6.95409 19.6549 6.97604Q19.6897 6.99799 19.7212 7.02449Q19.7527 7.051 19.7802 7.08156Q19.8078 7.11212 19.8309 7.14617Q19.8541 7.18021 19.8723 7.2171Q19.8906 7.25399 19.9036 7.29303Q19.9166 7.33206 19.9242 7.37252Q19.9318 7.41297 19.9337 7.45408Q19.9357 7.49519 19.932 7.53618Q19.9284 7.57717 19.9191 7.61728Q19.9099 7.65738 19.8952 7.69585Q19.8806 7.73431 19.8608 7.77041Q19.8411 7.80651 19.8165 7.83956Q19.792 7.87262 19.7632 7.90201L15.189 12.569L16.263 19.1233Q16.2698 19.1647 16.2707 19.2066Q16.2717 19.2485 16.2668 19.2902Q16.2619 19.3318 16.2512 19.3724Q16.2406 19.4129 16.2244 19.4516Q16.2082 19.4903 16.1867 19.5263Q16.1653 19.5623 16.1391 19.595Q16.1128 19.6277 16.0823 19.6565Q16.0518 19.6852 16.0175 19.7094Q15.9833 19.7336 15.946 19.7528Q15.9087 19.772 15.8691 19.7858Q15.8295 19.7996 15.7884 19.8077Q15.7473 19.8159 15.7054 19.8182Q15.6635 19.8206 15.6218 19.8171Q15.58 19.8136 15.5391 19.8043Q15.4982 19.795 15.459 19.7801Q15.4198 19.7652 15.3831 19.745L9.79586 16.6704Z" transform="translate(19.5918 19.5918)" id="Star" fill="none" stroke="#FFFFFF" stroke-width="2" />
  </g>
</svg>