<?xml version="1.0" encoding="utf-8"?>
<!-- Generator: Adobe Illustrator 21.1.0, SVG Export Plug-In . SVG Version: 6.00 Build 0)  -->
<svg  version="1.1" id="Безимени-1_Image" xmlns="http://www.w3.org/2000/svg" xmlns:xlink="http://www.w3.org/1999/xlink"
	 x="0px" y="0px"  viewBox="0 0 6633.5 926" style="enable-background:new 0 0 6633.5 926;" xml:space="preserve">
<g>
<filter id="dropshadow" height="130%">
  <feGaussianBlur in="SourceAlpha" stdDeviation="3"/> <!-- stdDeviation is how much to blur -->
  <feOffset dx="0" dy="2" result="offsetblur"/> <!-- how much to offset -->
  <feComponentTransfer>
    <feFuncA type="linear" slope="0.5"/> <!-- slope is the opacity of the shadow -->
  </feComponentTransfer>
  <feMerge>
    <feMergeNode/> <!-- this contains the offset blurred image -->
    <feMergeNode in="SourceGraphic"/> <!-- this contains the element that the filter is applied to -->
  </feMerge>
</filter>
	<path style="filter:url(#dropshadow)" d="M6684.1-62C6659-54.7,4225,623.6,4199.8,630.9c-21.7,6.3-43.4,12.7-65.1,19c-33.4,9.7-66.9,19.2-100.4,28.8
		c-25.1,7.3-50.2,14.8-75.4,22.1c-35,10.1-70,20.1-105.1,30.2c-27.7,8-55.3,16-83,24c-21.4,6.2-42.7,12.7-64.1,18.9
		c-35.8,10.3-71.6,20.5-107.4,30.8c-27.5,8-54.9,16.2-82.4,24.2c-35,10.1-70,20.1-105.1,30.2c-20,5.8-39.9,11.6-60.2,17.4
		c0,1,0.1,2,0,3c-1.4,18.6-14.7,32.9-33.6,34.4c-19.7,1.6-36.9-11.8-39.2-33c-0.5-4.7-2.7-5.7-6-6.7c-14.6-4.1-29.2-8.1-43.7-12.3
		c-21.2-6.2-42.4-12.6-63.6-18.8c-33.4-9.7-66.9-19.2-100.4-28.8c-25.1-7.3-50.2-14.8-75.4-22.1c-28.8-8.3-57.6-16.4-86.3-24.7
		c-19.7-5.7-39.3-11.7-59-17.3c-33.4-9.7-66.9-19.2-100.3-28.9c-25.2-7.3-50.2-14.8-75.4-22.1c-35-10.1-70-20.1-105.1-30.2
		c-37.2-10.7-74.4-21.4-111.6-32.2C2420.4,627.6,31.8-52.6,0-61.9c0-100.7,0-201.3,0-302c31.8,9.3,2420.4,689.4,2452.3,698.7
		c37.2,10.8,74.4,21.5,111.6,32.2c35,10.1,70.1,20,105.1,30.1c25,7.2,49.9,14.7,74.9,22c33.6,9.7,67.2,19.3,100.8,29
		c19.7,5.7,39.3,11.7,59,17.3c28.8,8.3,57.6,16.4,86.3,24.7c25.2,7.3,50.2,14.8,75.4,22.1c33.4,9.7,66.9,19.2,100.3,28.9
		c18.9,5.5,37.7,11.2,56.6,16.7c28.6,8.3,57.1,16.9,85.8,24.6c5.8,1.5,12.8,1,18.6-0.7c40.9-11.5,81.6-23.6,122.3-35.4
		c35.3-10.2,70.7-20.2,106-30.5c24.5-7.1,48.9-14.6,73.4-21.7c27-7.9,54.1-15.4,81.2-23.2c34.7-10,69.4-20,104.1-30
		c21.2-6.2,42.4-12.6,63.7-18.8c27.8-8.2,55.6-16.2,83.4-24.2c35-10.1,70.1-20,105.1-30.1c21.4-6.2,42.7-12.6,64.1-18.9
		c27.6-8.1,55.3-16.1,83-24c20.6-6,2450.1-683,2470.7-689" fill="#e1e0e0"/>
</g>
</svg>
