<?xml version="1.0" encoding="utf-8"?>
<!-- Generator: Adobe Illustrator 21.1.0, SVG Export Plug-In . SVG Version: 6.00 Build 0)  -->
<svg version="1.1" id="Безимени-1__x28_2_x29__xA0_Image_1_"
	 xmlns="http://www.w3.org/2000/svg" xmlns:xlink="http://www.w3.org/1999/xlink" x="0px" y="0px" viewBox="0 0 2964 432"
	 style="enable-background:new 0 0 2964 429;" xml:space="preserve">
<g>
<filter id="dropshadow" height="130%">
  <feGaussianBlur in="SourceAlpha" stdDeviation="3"/> <!-- stdDeviation is how much to blur -->
  <feOffset dx="0" dy="2" result="offsetblur"/> <!-- how much to offset -->
  <feComponentTransfer>
    <feFuncA type="linear" slope="0.5"/> <!-- slope is the opacity of the shadow -->
  </feComponentTransfer>
  <feMerge>
    <feMergeNode/> <!-- this contains the offset blurred image -->
    <feMergeNode in="SourceGraphic"/> <!-- this contains the element that the filter is applied to -->
  </feMerge>
</filter>
	<g>
		<path style="filter:url(#dropshadow)" d="M2964,0c-16.6,4.7-553.3,155.4-569.9,160.2c-95,27.8-190,55.7-285.1,83.5c-64.7,18.9-129.4,37.7-194.1,56.6
			c-111.3,32.5-222.6,64.9-333.9,97.4c-19.3,5.6-38.7,11-58.1,16.7c-10.9,3.2-21.6,7-32.6,10c-3.7,1-8.2,1.1-11.9,0
			c-55.3-16-110.6-32.3-165.9-48.4c-68.1-19.8-136.2-39.4-204.3-59.2c-89-25.9-178-51.9-267.1-77.7C746.9,211.7,652.5,184.4,558,157
			C547.1,153.8,11,2.7,0-0.5c0-23.7,0-47.1,0-71.2C7.7-69.5,540.3,80.5,547.7,82.6c48.3,13.9,96.5,27.7,144.8,41.7
			c34.5,10,68.9,20.1,103.4,30.2c28.6,8.3,57.1,16.7,85.7,25c39.6,11.5,79.2,22.9,118.8,34.4c75.6,21.9,151.2,43.7,226.7,65.6
			c73.6,21.4,147.2,42.8,220.8,64.2c9.4,2.7,18.8,5.8,28.3,8c4.5,1,9.8,1.1,14.2-0.1c47.5-13.5,94.9-27.3,142.4-41
			c50.1-14.5,100.3-29,150.4-43.5c44.5-12.9,88.9-25.9,133.3-38.7c56.8-16.5,113.6-32.8,170.4-49.3c46.7-13.5,93.4-27.1,140.1-40.7
			c40.2-11.7,80.4-23.4,120.7-35c30.8-8.9,61.6-17.7,92.4-26.5c1.3-0.4,522.6-146.7,523.9-147C2964-46.9,2964-23.3,2964,0z" fill="#e1e0e0"/>
	</g>
</g>
</svg>
