<svg xmlns="http://www.w3.org/2000/svg" xmlns:xlink="http://www.w3.org/1999/xlink" viewBox="0 0 74 74"><defs><style>.cls-1{fill:url(#Безымянный_градиент);}.cls-2{fill:url(#Безымянный_градиент_2);}.cls-3{fill:#fff;}</style><radialGradient id="Безымянный_градиент" cx="-1427.62" cy="-1570.62" r="4271.92" gradientTransform="matrix(0.02, 0, 0, -0.02, 36.19, 37.84)" gradientUnits="userSpaceOnUse"><stop offset="0.09" stop-color="#fa8f21"/><stop offset="0.78" stop-color="#d82d7e"/></radialGradient><radialGradient id="Безымянный_градиент_2" cx="685.23" cy="-1462.58" r="3759.33" gradientTransform="matrix(0.02, 0, 0, -0.02, 36.19, 37.84)" gradientUnits="userSpaceOnUse"><stop offset="0.64" stop-color="#8c3aaa" stop-opacity="0"/><stop offset="1" stop-color="#8c3aaa"/></radialGradient></defs><title>insta</title><g id="Слой_2" data-name="Слой 2"><g id="Слой_1-2" data-name="Слой 1"><path class="cls-1" d="M18.76,73.74a24.91,24.91,0,0,1-8.38-1.55,14,14,0,0,1-5.19-3.38,13.92,13.92,0,0,1-3.38-5.19A24.91,24.91,0,0,1,.26,55.24C0,50.48,0,49.06,0,37S0,23.53.26,18.76a25.05,25.05,0,0,1,1.55-8.38A14.08,14.08,0,0,1,5.19,5.19a13.93,13.93,0,0,1,5.19-3.38A24.91,24.91,0,0,1,18.76.26C23.52,0,25,0,37,0S50.48,0,55.24.26a25.05,25.05,0,0,1,8.38,1.55,14,14,0,0,1,5.19,3.38,14,14,0,0,1,3.38,5.19,24.91,24.91,0,0,1,1.55,8.38C74,23.52,74,24.95,74,37s0,13.48-.26,18.24a25,25,0,0,1-1.55,8.38,14.94,14.94,0,0,1-8.57,8.56,24.91,24.91,0,0,1-8.38,1.55C50.48,74,49.05,74,37,74s-13.48,0-18.23-.26"/><path class="cls-2" d="M18.76,73.74a24.91,24.91,0,0,1-8.38-1.55,14,14,0,0,1-5.19-3.38,13.92,13.92,0,0,1-3.38-5.19A24.91,24.91,0,0,1,.26,55.24C0,50.48,0,49.06,0,37S0,23.53.26,18.76a25.05,25.05,0,0,1,1.55-8.38A14.08,14.08,0,0,1,5.19,5.19a13.93,13.93,0,0,1,5.19-3.38A24.91,24.91,0,0,1,18.76.26C23.52,0,25,0,37,0S50.48,0,55.24.26a25.05,25.05,0,0,1,8.38,1.55,14,14,0,0,1,5.19,3.38,14,14,0,0,1,3.38,5.19,24.91,24.91,0,0,1,1.55,8.38C74,23.52,74,24.95,74,37s0,13.48-.26,18.24a25,25,0,0,1-1.55,8.38,14.94,14.94,0,0,1-8.57,8.56,24.91,24.91,0,0,1-8.38,1.55C50.48,74,49.05,74,37,74s-13.48,0-18.23-.26"/><path class="cls-3" d="M27.91,37.16a9.16,9.16,0,1,1,9.16,9.16,9.16,9.16,0,0,1-9.16-9.16m-5,0A14.12,14.12,0,1,0,37.08,23,14.12,14.12,0,0,0,23,37.16M48.45,22.48a3.3,3.3,0,1,0,3.3-3.3h0a3.3,3.3,0,0,0-3.3,3.3M26,59.54a15.19,15.19,0,0,1-5.11-.95,9.1,9.1,0,0,1-5.22-5.22,15.18,15.18,0,0,1-.95-5.11c-.13-2.9-.16-3.77-.16-11.11s0-8.21.16-11.11a15.29,15.29,0,0,1,.95-5.11,9.1,9.1,0,0,1,5.22-5.22A15.18,15.18,0,0,1,26,14.78c2.9-.13,3.77-.16,11.11-.16s8.21,0,11.11.16a15.29,15.29,0,0,1,5.11.95,9.1,9.1,0,0,1,5.22,5.22A15.18,15.18,0,0,1,59.46,26c.13,2.9.16,3.77.16,11.11s0,8.21-.16,11.11a15.25,15.25,0,0,1-.95,5.11,9.1,9.1,0,0,1-5.22,5.22,15.18,15.18,0,0,1-5.11.95c-2.9.13-3.77.16-11.11.16s-8.21,0-11.11-.16m-.23-49.7a20.16,20.16,0,0,0-6.67,1.28,14.06,14.06,0,0,0-8,8,20.16,20.16,0,0,0-1.28,6.67c-.14,2.93-.17,3.87-.17,11.33s0,8.4.17,11.33A20.16,20.16,0,0,0,11,55.16a14.06,14.06,0,0,0,8,8,20.18,20.18,0,0,0,6.67,1.28c2.93.13,3.87.17,11.33.17s8.4,0,11.33-.17a20.16,20.16,0,0,0,6.67-1.28,14.06,14.06,0,0,0,8-8,20.11,20.11,0,0,0,1.28-6.67c.13-2.93.16-3.87.16-11.33s0-8.4-.16-11.33a20.16,20.16,0,0,0-1.28-6.67,14.06,14.06,0,0,0-8-8,20.13,20.13,0,0,0-6.67-1.28c-2.93-.13-3.87-.17-11.33-.17s-8.4,0-11.34.17"/></g></g></svg>