<svg xmlns="http://www.w3.org/2000/svg" viewBox="0 0 74 74"><defs><style>.cls-1{fill:#7b519d;}.cls-2{fill:#fff;}</style></defs><title>viber</title><g id="Слой_2" data-name="Слой 2"><g id="Слой_1-2" data-name="Слой 1"><rect class="cls-1" width="74" height="74" rx="18" ry="18"/><path class="cls-2" d="M61,49.93c-1.76-1.42-3.65-2.69-5.5-4-3.7-2.6-7.08-2.8-9.84,1.38-1.55,2.35-3.72,2.45-6,1.42A26.54,26.54,0,0,1,25.74,35.17c-1.25-2.81-1.23-5.33,1.69-7.32,1.55-1.05,3.11-2.3,3-4.6-.16-3-7.44-13-10.31-14.07a5.23,5.23,0,0,0-3.58,0C9.78,11.45,7,17,9.66,23.55c8,19.58,22,33.2,41.32,41.52a19.06,19.06,0,0,0,2.94.83c4.4,0,9.55-4.19,11-8.4,1.43-4-1.59-5.65-4-7.58ZM39.32,11.19C53.44,13.36,60,20.08,61.75,34.3c.17,1.31-.32,3.29,1.55,3.33s1.49-1.91,1.5-3.23C65,21,53.29,8.59,39.73,8.13c-1,.15-3.14-.71-3.27,1.59-.09,1.55,1.69,1.29,2.86,1.47Z"/><path class="cls-2" d="M42.08,15.09c-1.36-.16-3.15-.8-3.47,1.08s1.67,1.78,3,2.06C50.29,20.19,53.32,23.36,54.76,32c.21,1.26-.21,3.22,1.94,2.9,1.59-.24,1-1.92,1.15-2.91.07-8.31-7-15.87-15.76-16.91Z"/><path class="cls-2" d="M42.88,21.88c-.91,0-1.8.12-2.13,1.09-.5,1.45.55,1.79,1.62,2,3.58.57,5.46,2.68,5.82,6.25.1,1,.71,1.75,1.65,1.64,1.3-.15,1.41-1.31,1.37-2.4.06-4-4.47-8.64-8.33-8.55Z"/></g></g></svg>